<svg width="16" height="16" viewBox="0 0 16 16" fill="none" xmlns="http://www.w3.org/2000/svg">
<path d="M8 13.0909C8.13845 13.0909 8.27379 13.0483 8.3889 12.9683C8.50401 12.8884 8.59373 12.7748 8.64672 12.642C8.6997 12.5091 8.71356 12.3628 8.68655 12.2218C8.65954 12.0807 8.59287 11.9511 8.49497 11.8494C8.39708 11.7477 8.27235 11.6784 8.13656 11.6503C8.00078 11.6223 7.86003 11.6367 7.73212 11.6917C7.60421 11.7468 7.49489 11.84 7.41797 11.9596C7.34105 12.0792 7.3 12.2198 7.3 12.3636C7.3 12.5565 7.37375 12.7415 7.50503 12.8779C7.6363 13.0143 7.81435 13.0909 8 13.0909ZM11.5 13.0909C11.6384 13.0909 11.7738 13.0483 11.8889 12.9683C12.004 12.8884 12.0937 12.7748 12.1467 12.642C12.1997 12.5091 12.2136 12.3628 12.1865 12.2218C12.1595 12.0807 12.0929 11.9511 11.995 11.8494C11.8971 11.7477 11.7724 11.6784 11.6366 11.6503C11.5008 11.6223 11.36 11.6367 11.2321 11.6917C11.1042 11.7468 10.9949 11.84 10.918 11.9596C10.8411 12.0792 10.8 12.2198 10.8 12.3636C10.8 12.5565 10.8737 12.7415 11.005 12.8779C11.1363 13.0143 11.3143 13.0909 11.5 13.0909ZM11.5 10.1818C11.6384 10.1818 11.7738 10.1392 11.8889 10.0593C12.004 9.97934 12.0937 9.86575 12.1467 9.73286C12.1997 9.59997 12.2136 9.45374 12.1865 9.31266C12.1595 9.17159 12.0929 9.042 11.995 8.94029C11.8971 8.83858 11.7724 8.76931 11.6366 8.74125C11.5008 8.71319 11.36 8.72759 11.2321 8.78263C11.1042 8.83768 10.9949 8.93089 10.918 9.05049C10.8411 9.17009 10.8 9.31071 10.8 9.45455C10.8 9.64743 10.8737 9.83241 11.005 9.96881C11.1363 10.1052 11.3143 10.1818 11.5 10.1818ZM8 10.1818C8.13845 10.1818 8.27379 10.1392 8.3889 10.0593C8.50401 9.97934 8.59373 9.86575 8.64672 9.73286C8.6997 9.59997 8.71356 9.45374 8.68655 9.31266C8.65954 9.17159 8.59287 9.042 8.49497 8.94029C8.39708 8.83858 8.27235 8.76931 8.13656 8.74125C8.00078 8.71319 7.86003 8.72759 7.73212 8.78263C7.60421 8.83768 7.49489 8.93089 7.41797 9.05049C7.34105 9.17009 7.3 9.31071 7.3 9.45455C7.3 9.64743 7.37375 9.83241 7.50503 9.96881C7.6363 10.1052 7.81435 10.1818 8 10.1818ZM12.9 1.45455H12.2V0.727273C12.2 0.534388 12.1263 0.349403 11.995 0.213013C11.8637 0.0766231 11.6857 0 11.5 0C11.3143 0 11.1363 0.0766231 11.005 0.213013C10.8737 0.349403 10.8 0.534388 10.8 0.727273V1.45455H5.2V0.727273C5.2 0.534388 5.12625 0.349403 4.99497 0.213013C4.8637 0.0766231 4.68565 0 4.5 0C4.31435 0 4.1363 0.0766231 4.00503 0.213013C3.87375 0.349403 3.8 0.534388 3.8 0.727273V1.45455H3.1C2.54305 1.45455 2.0089 1.68442 1.61508 2.09359C1.22125 2.50276 1 3.05771 1 3.63636V13.8182C1 14.3968 1.22125 14.9518 1.61508 15.361C2.0089 15.7701 2.54305 16 3.1 16H12.9C13.457 16 13.9911 15.7701 14.3849 15.361C14.7788 14.9518 15 14.3968 15 13.8182V3.63636C15 3.05771 14.7788 2.50276 14.3849 2.09359C13.9911 1.68442 13.457 1.45455 12.9 1.45455ZM13.6 13.8182C13.6 14.0111 13.5263 14.1961 13.395 14.3324C13.2637 14.4688 13.0857 14.5455 12.9 14.5455H3.1C2.91435 14.5455 2.7363 14.4688 2.60503 14.3324C2.47375 14.1961 2.4 14.0111 2.4 13.8182V7.27273H13.6V13.8182ZM13.6 5.81818H2.4V3.63636C2.4 3.44348 2.47375 3.25849 2.60503 3.1221C2.7363 2.98571 2.91435 2.90909 3.1 2.90909H3.8V3.63636C3.8 3.82925 3.87375 4.01423 4.00503 4.15062C4.1363 4.28701 4.31435 4.36364 4.5 4.36364C4.68565 4.36364 4.8637 4.28701 4.99497 4.15062C5.12625 4.01423 5.2 3.82925 5.2 3.63636V2.90909H10.8V3.63636C10.8 3.82925 10.8737 4.01423 11.005 4.15062C11.1363 4.28701 11.3143 4.36364 11.5 4.36364C11.6857 4.36364 11.8637 4.28701 11.995 4.15062C12.1263 4.01423 12.2 3.82925 12.2 3.63636V2.90909H12.9C13.0857 2.90909 13.2637 2.98571 13.395 3.1221C13.5263 3.25849 13.6 3.44348 13.6 3.63636V5.81818ZM4.5 10.1818C4.63845 10.1818 4.77378 10.1392 4.8889 10.0593C5.00401 9.97934 5.09373 9.86575 5.14672 9.73286C5.1997 9.59997 5.21356 9.45374 5.18655 9.31266C5.15954 9.17159 5.09287 9.042 4.99497 8.94029C4.89708 8.83858 4.77235 8.76931 4.63656 8.74125C4.50078 8.71319 4.36003 8.72759 4.23212 8.78263C4.10421 8.83768 3.99489 8.93089 3.91797 9.05049C3.84105 9.17009 3.8 9.31071 3.8 9.45455C3.8 9.64743 3.87375 9.83241 4.00503 9.96881C4.1363 10.1052 4.31435 10.1818 4.5 10.1818ZM4.5 13.0909C4.63845 13.0909 4.77378 13.0483 4.8889 12.9683C5.00401 12.8884 5.09373 12.7748 5.14672 12.642C5.1997 12.5091 5.21356 12.3628 5.18655 12.2218C5.15954 12.0807 5.09287 11.9511 4.99497 11.8494C4.89708 11.7477 4.77235 11.6784 4.63656 11.6503C4.50078 11.6223 4.36003 11.6367 4.23212 11.6917C4.10421 11.7468 3.99489 11.84 3.91797 11.9596C3.84105 12.0792 3.8 12.2198 3.8 12.3636C3.8 12.5565 3.87375 12.7415 4.00503 12.8779C4.1363 13.0143 4.31435 13.0909 4.5 13.0909Z" fill="#424245"/>
</svg>
