<svg width="16" height="16" viewBox="0 0 16 16" fill="none" xmlns="http://www.w3.org/2000/svg">
<rect width="16" height="16" rx="8" fill="#D2D2D7"/>
<path d="M10.6995 4.29079L6.40954 8.59079L4.75954 6.94079C4.6699 6.83611 4.55958 6.75109 4.43551 6.69107C4.31145 6.63104 4.17632 6.59731 4.0386 6.59199C3.90088 6.58667 3.76355 6.60988 3.63522 6.66016C3.5069 6.71043 3.39035 6.78669 3.29289 6.88414C3.19544 6.9816 3.11918 7.09815 3.06891 7.22647C3.01863 7.35479 2.99543 7.49213 3.00075 7.62985C3.00606 7.76756 3.03979 7.9027 3.09982 8.02676C3.15984 8.15083 3.24486 8.26115 3.34954 8.35079L5.69954 10.7108C5.79298 10.8035 5.9038 10.8768 6.02564 10.9266C6.14747 10.9763 6.27794 11.0016 6.40954 11.0008C6.67188 10.9997 6.92328 10.8955 7.10954 10.7108L12.1095 5.71079C12.2033 5.61783 12.2777 5.50723 12.3284 5.38537C12.3792 5.26351 12.4053 5.1328 12.4053 5.00079C12.4053 4.86878 12.3792 4.73807 12.3284 4.61622C12.2777 4.49436 12.2033 4.38376 12.1095 4.29079C11.9222 4.10454 11.6687 4 11.4045 4C11.1404 4 10.8869 4.10454 10.6995 4.29079Z" fill="white"/>
</svg>
