<svg width="18" height="12" viewBox="0 0 18 12" fill="none" xmlns="http://www.w3.org/2000/svg">
<path d="M12 0.857143C12 0.629814 11.9097 0.411797 11.7489 0.251051C11.5882 0.090306 11.3702 0 11.1429 0H0.857143C0.629814 0 0.411797 0.090306 0.251051 0.251051C0.0903058 0.411797 0 0.629814 0 0.857143C0 1.08447 0.0903058 1.30249 0.251051 1.46323C0.411797 1.62398 0.629814 1.71429 0.857143 1.71429H5.14286V11.1429C5.14286 11.3702 5.23316 11.5882 5.39391 11.7489C5.55465 11.9097 5.77267 12 6 12C6.22733 12 6.44535 11.9097 6.60609 11.7489C6.76684 11.5882 6.85714 11.3702 6.85714 11.1429V1.71429H11.1429C11.3702 1.71429 11.5882 1.62398 11.7489 1.46323C11.9097 1.30249 12 1.08447 12 0.857143ZM16.2857 5.14286H11.1429C10.9155 5.14286 10.6975 5.23316 10.5368 5.39391C10.376 5.55465 10.2857 5.77267 10.2857 6C10.2857 6.22733 10.376 6.44535 10.5368 6.60609C10.6975 6.76684 10.9155 6.85714 11.1429 6.85714H12.8571V11.1429C12.8571 11.3702 12.9474 11.5882 13.1082 11.7489C13.2689 11.9097 13.487 12 13.7143 12C13.9416 12 14.1596 11.9097 14.3204 11.7489C14.4811 11.5882 14.5714 11.3702 14.5714 11.1429V6.85714H16.2857C16.513 6.85714 16.7311 6.76684 16.8918 6.60609C17.0526 6.44535 17.1429 6.22733 17.1429 6C17.1429 5.77267 17.0526 5.55465 16.8918 5.39391C16.7311 5.23316 16.513 5.14286 16.2857 5.14286Z" fill="#424245"/>
</svg>
