<svg width="10" height="12" viewBox="0 0 10 12" fill="none" xmlns="http://www.w3.org/2000/svg">
<path d="M9.99426 3.5C9.99426 3.04037 9.89373 2.58525 9.69841 2.16061C9.50309 1.73597 9.2168 1.35013 8.85589 1.02513C8.49498 0.700121 8.06652 0.442313 7.59497 0.266422C7.12341 0.0905303 6.61801 0 6.10761 0H1.11047C0.815958 0 0.533505 0.105357 0.32525 0.292893C0.116996 0.48043 0 0.734784 0 1V11C0 11.2652 0.116996 11.5196 0.32525 11.7071C0.533505 11.8946 0.815958 12 1.11047 12H6.10761C6.88124 12.003 7.63818 11.7975 8.28099 11.4098C8.9238 11.0221 9.42306 10.4701 9.71449 9.82475C10.0059 9.17939 10.0762 8.47025 9.9163 7.78862C9.75638 7.10698 9.37357 6.48405 8.81716 6C9.18841 5.67492 9.48378 5.2863 9.68592 4.85699C9.88806 4.42767 9.99289 3.96631 9.99426 3.5ZM6.10761 10H2.22095V7H6.10761C6.54938 7 6.97306 7.15804 7.28544 7.43934C7.59782 7.72064 7.77332 8.10218 7.77332 8.5C7.77332 8.89782 7.59782 9.27936 7.28544 9.56066C6.97306 9.84196 6.54938 10 6.10761 10ZM6.10761 5H2.22095V2H6.10761C6.54938 2 6.97306 2.15804 7.28544 2.43934C7.59782 2.72064 7.77332 3.10218 7.77332 3.5C7.77332 3.89782 7.59782 4.27936 7.28544 4.56066C6.97306 4.84196 6.54938 5 6.10761 5Z" fill="#424245"/>
</svg>
