<svg width="16" height="10" viewBox="0 0 16 10" fill="none" xmlns="http://www.w3.org/2000/svg">
<path d="M1.36817 8.2319C1.29209 8.15907 1.20237 8.10198 1.10417 8.06391C0.909406 7.98389 0.690947 7.98389 0.49618 8.06391C0.39798 8.10198 0.308265 8.15907 0.232183 8.2319C0.159352 8.30799 0.10226 8.3977 0.0641853 8.4959C0.00292242 8.64159 -0.0138155 8.80216 0.0160834 8.95735C0.0459824 9.11254 0.121178 9.25539 0.232183 9.36789C0.309943 9.43855 0.399233 9.49538 0.49618 9.53589C0.591939 9.57821 0.695481 9.60007 0.800177 9.60007C0.904872 9.60007 1.00841 9.57821 1.10417 9.53589C1.20112 9.49538 1.29041 9.43855 1.36817 9.36789C1.47918 9.25539 1.55437 9.11254 1.58427 8.95735C1.61417 8.80216 1.59743 8.64159 1.53617 8.4959C1.49809 8.3977 1.441 8.30799 1.36817 8.2319ZM4.00014 1.59998H15.2C15.4122 1.59998 15.6157 1.5157 15.7657 1.36567C15.9157 1.21564 16 1.01216 16 0.799991C16 0.58782 15.9157 0.384339 15.7657 0.234312C15.6157 0.0842846 15.4122 0 15.2 0H4.00014C3.78797 0 3.58449 0.0842846 3.43446 0.234312C3.28443 0.384339 3.20015 0.58782 3.20015 0.799991C3.20015 1.01216 3.28443 1.21564 3.43446 1.36567C3.58449 1.5157 3.78797 1.59998 4.00014 1.59998ZM1.36817 4.23195C1.25567 4.12095 1.11282 4.04575 0.957626 4.01585C0.802436 3.98595 0.641867 4.00269 0.49618 4.06395C0.399233 4.10447 0.309943 4.16129 0.232183 4.23195C0.159352 4.30803 0.10226 4.39775 0.0641853 4.49595C0.0218616 4.59171 0 4.69525 0 4.79994C0 4.90464 0.0218616 5.00818 0.0641853 5.10394C0.104698 5.20089 0.161519 5.29018 0.232183 5.36794C0.309943 5.4386 0.399233 5.49542 0.49618 5.53594C0.591939 5.57826 0.695481 5.60012 0.800177 5.60012C0.904872 5.60012 1.00841 5.57826 1.10417 5.53594C1.20112 5.49542 1.29041 5.4386 1.36817 5.36794C1.43883 5.29018 1.49566 5.20089 1.53617 5.10394C1.57849 5.00818 1.60035 4.90464 1.60035 4.79994C1.60035 4.69525 1.57849 4.59171 1.53617 4.49595C1.49809 4.39775 1.441 4.30803 1.36817 4.23195ZM15.2 3.99995H4.00014C3.78797 3.99995 3.58449 4.08424 3.43446 4.23427C3.28443 4.38429 3.20015 4.58777 3.20015 4.79994C3.20015 5.01212 3.28443 5.2156 3.43446 5.36562C3.58449 5.51565 3.78797 5.59994 4.00014 5.59994H15.2C15.4122 5.59994 15.6157 5.51565 15.7657 5.36562C15.9157 5.2156 16 5.01212 16 4.79994C16 4.58777 15.9157 4.38429 15.7657 4.23427C15.6157 4.08424 15.4122 3.99995 15.2 3.99995ZM1.36817 0.231997C1.29209 0.159166 1.20237 0.102074 1.10417 0.0639992C0.958486 0.00273636 0.797918 -0.0140014 0.642728 0.0158976C0.487538 0.0457965 0.344681 0.120992 0.232183 0.231997C0.161519 0.309757 0.104698 0.399047 0.0641853 0.495994C0.0218616 0.591753 0 0.695295 0 0.799991C0 0.904686 0.0218616 1.00823 0.0641853 1.10399C0.104698 1.20093 0.161519 1.29022 0.232183 1.36798C0.309943 1.43865 0.399233 1.49547 0.49618 1.53598C0.641867 1.59725 0.802436 1.61398 0.957626 1.58408C1.11282 1.55418 1.25567 1.47899 1.36817 1.36798C1.43883 1.29022 1.49566 1.20093 1.53617 1.10399C1.57849 1.00823 1.60035 0.904686 1.60035 0.799991C1.60035 0.695295 1.57849 0.591753 1.53617 0.495994C1.49566 0.399047 1.43883 0.309757 1.36817 0.231997ZM15.2 7.99991H4.00014C3.78797 7.99991 3.58449 8.08419 3.43446 8.23422C3.28443 8.38425 3.20015 8.58773 3.20015 8.7999C3.20015 9.01207 3.28443 9.21555 3.43446 9.36558C3.58449 9.5156 3.78797 9.59989 4.00014 9.59989H15.2C15.4122 9.59989 15.6157 9.5156 15.7657 9.36558C15.9157 9.21555 16 9.01207 16 8.7999C16 8.58773 15.9157 8.38425 15.7657 8.23422C15.6157 8.08419 15.4122 7.99991 15.2 7.99991Z" fill="#424245"/>
</svg>
