<svg width="23" height="24" viewBox="0 0 23 24" fill="none" xmlns="http://www.w3.org/2000/svg">
<path d="M21.8437 12.0035C21.5388 12.0035 21.2463 12.1299 21.0307 12.3548C20.8151 12.5798 20.694 12.885 20.694 13.2031V20.401C20.694 20.7192 20.5729 21.0243 20.3573 21.2493C20.1417 21.4743 19.8492 21.6007 19.5443 21.6007H3.449C3.14409 21.6007 2.85167 21.4743 2.63606 21.2493C2.42046 21.0243 2.29933 20.7192 2.29933 20.401V3.60591C2.29933 3.28774 2.42046 2.98261 2.63606 2.75763C2.85167 2.53265 3.14409 2.40626 3.449 2.40626H10.347C10.6519 2.40626 10.9443 2.27987 11.1599 2.05489C11.3755 1.82991 11.4967 1.52478 11.4967 1.20661C11.4967 0.888441 11.3755 0.583304 11.1599 0.358326C10.9443 0.133348 10.6519 0.00695599 10.347 0.00695599H3.449C2.53427 0.00695599 1.657 0.386131 1.01019 1.06107C0.363376 1.736 0 2.65141 0 3.60591V20.401C0 21.3555 0.363376 22.271 1.01019 22.9459C1.657 23.6208 2.53427 24 3.449 24H19.5443C20.4591 24 21.3363 23.6208 21.9831 22.9459C22.63 22.271 22.9933 21.3555 22.9933 20.401V13.2031C22.9933 12.885 22.8722 12.5798 22.6566 12.3548C22.441 12.1299 22.1486 12.0035 21.8437 12.0035ZM4.59867 12.9152V18.0017C4.59867 18.3199 4.71979 18.625 4.9354 18.85C5.151 19.075 5.44342 19.2014 5.74833 19.2014H10.6229C10.7742 19.2023 10.9242 19.172 11.0643 19.1123C11.2044 19.0526 11.3318 18.9647 11.4392 18.8535L19.3949 10.5399L22.6599 7.20487C22.7677 7.09335 22.8532 6.96066 22.9116 6.81447C22.9699 6.66829 23 6.51148 23 6.35312C23 6.19475 22.9699 6.03795 22.9116 5.89176C22.8532 5.74557 22.7677 5.61289 22.6599 5.50136L17.7853 0.354855C17.6785 0.242414 17.5513 0.153166 17.4112 0.0922616C17.2711 0.0313568 17.1208 0 16.9691 0C16.8173 0 16.667 0.0313568 16.5269 0.0922616C16.3868 0.153166 16.2597 0.242414 16.1528 0.354855L12.9108 3.74987L4.93207 12.0635C4.82552 12.1756 4.74122 12.3085 4.684 12.4547C4.62679 12.6008 4.59779 12.7573 4.59867 12.9152ZM16.9691 2.89812L20.2226 6.29313L18.5901 7.99664L15.3366 4.60162L16.9691 2.89812ZM6.898 13.4071L13.7155 6.29313L16.9691 9.68815L10.1516 16.8021H6.898V13.4071Z" fill="white"/>
</svg>
