<svg width="16" height="8" viewBox="0 0 16 8" fill="none" xmlns="http://www.w3.org/2000/svg">
<path d="M4.8 4C4.8 4.21217 4.88429 4.41566 5.03431 4.56569C5.18434 4.71571 5.38783 4.8 5.6 4.8H10.4C10.6122 4.8 10.8157 4.71571 10.9657 4.56569C11.1157 4.41566 11.2 4.21217 11.2 4C11.2 3.78783 11.1157 3.58434 10.9657 3.43431C10.8157 3.28429 10.6122 3.2 10.4 3.2H5.6C5.38783 3.2 5.18434 3.28429 5.03431 3.43431C4.88429 3.58434 4.8 3.78783 4.8 4ZM6.4 6.4H4C3.36348 6.4 2.75303 6.14714 2.30294 5.69706C1.85286 5.24697 1.6 4.63652 1.6 4C1.6 3.36348 1.85286 2.75303 2.30294 2.30294C2.75303 1.85286 3.36348 1.6 4 1.6H6.4C6.61217 1.6 6.81566 1.51571 6.96569 1.36569C7.11571 1.21566 7.2 1.01217 7.2 0.8C7.2 0.587827 7.11571 0.384344 6.96569 0.234315C6.81566 0.0842856 6.61217 0 6.4 0H4C2.93913 0 1.92172 0.421427 1.17157 1.17157C0.421427 1.92172 0 2.93913 0 4C0 5.06087 0.421427 6.07828 1.17157 6.82843C1.92172 7.57857 2.93913 8 4 8H6.4C6.61217 8 6.81566 7.91572 6.96569 7.76569C7.11571 7.61566 7.2 7.41217 7.2 7.2C7.2 6.98783 7.11571 6.78434 6.96569 6.63432C6.81566 6.48429 6.61217 6.4 6.4 6.4ZM12 0H9.6C9.38783 0 9.18434 0.0842856 9.03432 0.234315C8.88429 0.384344 8.8 0.587827 8.8 0.8C8.8 1.01217 8.88429 1.21566 9.03432 1.36569C9.18434 1.51571 9.38783 1.6 9.6 1.6H12C12.6365 1.6 13.247 1.85286 13.6971 2.30294C14.1471 2.75303 14.4 3.36348 14.4 4C14.4 4.63652 14.1471 5.24697 13.6971 5.69706C13.247 6.14714 12.6365 6.4 12 6.4H9.6C9.38783 6.4 9.18434 6.48429 9.03432 6.63432C8.88429 6.78434 8.8 6.98783 8.8 7.2C8.8 7.41217 8.88429 7.61566 9.03432 7.76569C9.18434 7.91572 9.38783 8 9.6 8H12C13.0609 8 14.0783 7.57857 14.8284 6.82843C15.5786 6.07828 16 5.06087 16 4C16 2.93913 15.5786 1.92172 14.8284 1.17157C14.0783 0.421427 13.0609 0 12 0Z" fill="#424245"/>
</svg>
