<svg width="10" height="12" viewBox="0 0 10 12" fill="none" xmlns="http://www.w3.org/2000/svg">
<path d="M4.8 8.8C5.86087 8.8 6.87828 8.37857 7.62843 7.62843C8.37857 6.87828 8.8 5.86087 8.8 4.8V0.8C8.8 0.587827 8.71572 0.384344 8.56569 0.234315C8.41566 0.0842856 8.21217 0 8 0C7.78783 0 7.58434 0.0842856 7.43431 0.234315C7.28429 0.384344 7.2 0.587827 7.2 0.8V4.8C7.2 5.43652 6.94714 6.04697 6.49706 6.49706C6.04697 6.94714 5.43652 7.2 4.8 7.2C4.16348 7.2 3.55303 6.94714 3.10294 6.49706C2.65286 6.04697 2.4 5.43652 2.4 4.8V0.8C2.4 0.587827 2.31571 0.384344 2.16569 0.234315C2.01566 0.0842856 1.81217 0 1.6 0C1.38783 0 1.18434 0.0842856 1.03431 0.234315C0.884286 0.384344 0.8 0.587827 0.8 0.8V4.8C0.8 5.86087 1.22143 6.87828 1.97157 7.62843C2.72172 8.37857 3.73913 8.8 4.8 8.8ZM8.8 10.4H0.8C0.587827 10.4 0.384344 10.4843 0.234315 10.6343C0.0842856 10.7843 0 10.9878 0 11.2C0 11.4122 0.0842856 11.6157 0.234315 11.7657C0.384344 11.9157 0.587827 12 0.8 12H8.8C9.01217 12 9.21566 11.9157 9.36569 11.7657C9.51572 11.6157 9.6 11.4122 9.6 11.2C9.6 10.9878 9.51572 10.7843 9.36569 10.6343C9.21566 10.4843 9.01217 10.4 8.8 10.4Z" fill="#424245"/>
</svg>
