<svg width="22" height="24" viewBox="0 0 22 24" fill="none" xmlns="http://www.w3.org/2000/svg">
<path d="M20.7777 7.22008L13.4445 0.915623C12.7722 0.325982 11.9019 0 11 0C10.0981 0 9.22786 0.325982 8.55561 0.915623L1.22233 7.22008C0.834116 7.56056 0.524323 7.97824 0.313579 8.44531C0.102835 8.91237 -0.00402421 9.41811 0.000115859 9.92884V20.4043C0.000115859 21.3579 0.386422 22.2725 1.07405 22.9468C1.76168 23.6212 2.6943 24 3.66676 24H18.3333C19.3058 24 20.2384 23.6212 20.926 22.9468C21.6137 22.2725 22 21.3579 22 20.4043V9.91685C22.0024 9.40814 21.8947 8.90471 21.684 8.43984C21.4733 7.97496 21.1644 7.55922 20.7777 7.22008ZM13.4445 21.6029H8.55561V15.61C8.55561 15.2922 8.68438 14.9873 8.91359 14.7625C9.1428 14.5378 9.45367 14.4115 9.77782 14.4115H12.2222C12.5464 14.4115 12.8573 14.5378 13.0865 14.7625C13.3157 14.9873 13.4445 15.2922 13.4445 15.61V21.6029ZM19.5555 20.4043C19.5555 20.7222 19.4268 21.027 19.1976 21.2518C18.9683 21.4766 18.6575 21.6029 18.3333 21.6029H15.8889V15.61C15.8889 14.6564 15.5026 13.7418 14.815 13.0675C14.1273 12.3932 13.1947 12.0143 12.2222 12.0143H9.77782C8.80537 12.0143 7.87275 12.3932 7.18512 13.0675C6.49749 13.7418 6.11118 14.6564 6.11118 15.61V21.6029H3.66676C3.34261 21.6029 3.03173 21.4766 2.80252 21.2518C2.57331 21.027 2.44454 20.7222 2.44454 20.4043V9.91685C2.44476 9.74667 2.48193 9.57849 2.55359 9.4235C2.62524 9.2685 2.72972 9.13025 2.8601 9.01793L10.1934 2.72546C10.4164 2.5333 10.7032 2.42733 11 2.42733C11.2969 2.42733 11.5837 2.5333 11.8067 2.72546L19.14 9.01793C19.2703 9.13025 19.3748 9.2685 19.4465 9.4235C19.5181 9.57849 19.5553 9.74667 19.5555 9.91685V20.4043Z" fill="#424245"/>
</svg>
