<svg width="13" height="16" viewBox="0 0 13 16" fill="none" xmlns="http://www.w3.org/2000/svg">
<path d="M10.8183 1.98217C9.62984 0.713009 8.01794 -1.33728e-08 6.33721 0C4.65648 1.33728e-08 3.04458 0.713009 1.85613 1.98217C0.667669 3.25133 1.25224e-08 4.97269 0 6.76756C-1.25224e-08 8.56243 0.667669 10.2838 1.85613 11.5529L5.79201 15.7641C5.86144 15.8388 5.94404 15.8982 6.03505 15.9387C6.12606 15.9792 6.22368 16 6.32227 16C6.42087 16 6.51848 15.9792 6.60949 15.9387C6.7005 15.8982 6.78311 15.8388 6.85254 15.7641L10.8183 11.5131C12.0018 10.2492 12.6667 8.535 12.6667 6.74762C12.6667 4.96023 12.0018 3.24605 10.8183 1.98217V1.98217ZM9.7503 10.3725L6.33721 14.0334L2.92412 10.3725C2.24982 9.6518 1.79076 8.73375 1.60496 7.73444C1.41916 6.73512 1.51496 5.69942 1.88025 4.75824C2.24555 3.81706 2.86394 3.01266 3.65725 2.44673C4.45056 1.8808 5.38318 1.57875 6.33721 1.57875C7.29125 1.57875 8.22386 1.8808 9.01718 2.44673C9.81049 3.01266 10.4289 3.81706 10.7942 4.75824C11.1595 5.69942 11.2553 6.73512 11.0695 7.73444C10.8837 8.73375 10.4246 9.6518 9.7503 10.3725V10.3725ZM4.09667 4.31903C3.49375 4.96488 3.15519 5.83964 3.15519 6.75161C3.15519 7.66357 3.49375 8.53833 4.09667 9.18418C4.5446 9.66334 5.11506 9.99058 5.73648 10.1248C6.35791 10.2591 7.00262 10.1944 7.58973 9.9388C8.17684 9.68323 8.68021 9.24821 9.03668 8.68829C9.39315 8.12838 9.58684 7.46851 9.59347 6.79148C9.59683 6.33943 9.51529 5.89124 9.35366 5.47342C9.19203 5.0556 8.95359 4.67663 8.65244 4.35891C8.35644 4.03556 8.00349 3.77792 7.61389 3.6008C7.22429 3.42368 6.80574 3.33059 6.38232 3.32689C5.9589 3.32318 5.53898 3.40893 5.14672 3.5792C4.75445 3.74948 4.39759 4.00091 4.09667 4.31903V4.31903ZM7.59938 8.05164C7.31636 8.35849 6.94232 8.55083 6.5412 8.59578C6.14008 8.64072 5.73679 8.53547 5.4003 8.29803C5.0638 8.06058 4.81499 7.70569 4.69639 7.29402C4.5778 6.88235 4.59679 6.43947 4.75013 6.0411C4.90346 5.64273 5.18161 5.31361 5.53703 5.11001C5.89244 4.90641 6.30305 4.84097 6.69864 4.92488C7.09423 5.00879 7.45025 5.23684 7.70582 5.57004C7.96139 5.90324 8.10064 6.3209 8.09977 6.75161C8.08891 7.24392 7.8955 7.7115 7.56204 8.05164H7.59938Z" fill="#424245"/>
</svg>
