<svg width="16" height="13" viewBox="0 0 16 13" fill="none" xmlns="http://www.w3.org/2000/svg">
<path d="M13.6 0.333374H2.4C1.76348 0.333374 1.15303 0.583597 0.702944 1.029C0.252856 1.47439 0 2.07848 0 2.70837V10.625C0 11.2549 0.252856 11.859 0.702944 12.3044C1.15303 12.7498 1.76348 13 2.4 13H13.6C14.2365 13 14.847 12.7498 15.2971 12.3044C15.7471 11.859 16 11.2549 16 10.625V2.70837C16 2.07848 15.7471 1.47439 15.2971 1.029C14.847 0.583597 14.2365 0.333374 13.6 0.333374V0.333374ZM13.272 1.91671L8.568 6.57171C8.49363 6.64591 8.40515 6.7048 8.30766 6.745C8.21017 6.78519 8.10561 6.80588 8 6.80588C7.89439 6.80588 7.78983 6.78519 7.69234 6.745C7.59485 6.7048 7.50637 6.64591 7.432 6.57171L2.728 1.91671H13.272ZM14.4 10.625C14.4 10.835 14.3157 11.0364 14.1657 11.1848C14.0157 11.3333 13.8122 11.4167 13.6 11.4167H2.4C2.18783 11.4167 1.98434 11.3333 1.83431 11.1848C1.68429 11.0364 1.6 10.835 1.6 10.625V3.03296L6.304 7.68796C6.754 8.13272 7.364 8.38253 8 8.38253C8.636 8.38253 9.246 8.13272 9.696 7.68796L14.4 3.03296V10.625Z" fill="#424245"/>
</svg>
