<svg width="16" height="4" viewBox="0 0 16 4" fill="none" xmlns="http://www.w3.org/2000/svg">
<path d="M8 0.222168C7.64839 0.222168 7.30467 0.326433 7.01232 0.521778C6.71997 0.717122 6.4921 0.994773 6.35755 1.31962C6.22299 1.64447 6.18779 2.00192 6.25638 2.34677C6.32498 2.69163 6.4943 3.0084 6.74292 3.25702C6.99155 3.50565 7.30832 3.67497 7.65317 3.74356C7.99803 3.81216 8.35548 3.77695 8.68033 3.6424C9.00517 3.50784 9.28282 3.27998 9.47817 2.98763C9.67351 2.69527 9.77778 2.35156 9.77778 1.99995C9.77778 1.52845 9.59048 1.07627 9.25708 0.742867C8.92368 0.409469 8.4715 0.222168 8 0.222168ZM1.77778 0.222168C1.42617 0.222168 1.08245 0.326433 0.790098 0.521778C0.497744 0.717122 0.269882 0.994773 0.135326 1.31962C0.000770277 1.64447 -0.0344356 2.00192 0.0341603 2.34677C0.102756 2.69163 0.272073 3.0084 0.5207 3.25702C0.769326 3.50565 1.0861 3.67497 1.43095 3.74356C1.77581 3.81216 2.13326 3.77695 2.4581 3.6424C2.78295 3.50784 3.0606 3.27998 3.25595 2.98763C3.45129 2.69527 3.55556 2.35156 3.55556 1.99995C3.55556 1.52845 3.36826 1.07627 3.03486 0.742867C2.70146 0.409469 2.24927 0.222168 1.77778 0.222168ZM14.2222 0.222168C13.8706 0.222168 13.5269 0.326433 13.2345 0.521778C12.9422 0.717122 12.7143 0.994773 12.5798 1.31962C12.4452 1.64447 12.41 2.00192 12.4786 2.34677C12.5472 2.69163 12.7165 3.0084 12.9651 3.25702C13.2138 3.50565 13.5305 3.67497 13.8754 3.74356C14.2203 3.81216 14.5777 3.77695 14.9025 3.6424C15.2274 3.50784 15.505 3.27998 15.7004 2.98763C15.8957 2.69527 16 2.35156 16 1.99995C16 1.52845 15.8127 1.07627 15.4793 0.742867C15.1459 0.409469 14.6937 0.222168 14.2222 0.222168Z" fill="#424245"/>
</svg>
