<svg width="16" height="16" viewBox="0 0 16 16" fill="none" xmlns="http://www.w3.org/2000/svg">
<path d="M10.248 8.224C10.7544 7.68019 11.0397 6.96702 11.048 6.224C11.048 5.42199 10.7294 4.65282 10.1623 4.08571C9.59518 3.5186 8.82601 3.2 8.024 3.2C7.22199 3.2 6.45282 3.5186 5.88571 4.08571C5.3186 4.65282 5 5.42199 5 6.224C5.00835 6.96702 5.29362 7.68019 5.8 8.224C5.09492 8.5751 4.48818 9.09595 4.03433 9.73971C3.58049 10.3835 3.29378 11.1299 3.2 11.912C3.17666 12.1242 3.23856 12.3369 3.37209 12.5035C3.50561 12.67 3.69983 12.7767 3.912 12.8C4.12417 12.8233 4.33693 12.7614 4.50346 12.6279C4.66999 12.4944 4.77666 12.3002 4.8 12.088C4.89547 11.3129 5.27108 10.5995 5.85607 10.0821C6.44106 9.56476 7.19505 9.27918 7.976 9.27918C8.75695 9.27918 9.51094 9.56476 10.0959 10.0821C10.6809 10.5995 11.0565 11.3129 11.152 12.088C11.1742 12.2931 11.2749 12.4817 11.4329 12.6144C11.5909 12.7471 11.7941 12.8136 12 12.8H12.088C12.2977 12.7759 12.4894 12.6698 12.6212 12.505C12.7531 12.3402 12.8145 12.1299 12.792 11.92C12.7052 11.1421 12.4275 10.3976 11.9837 9.75284C11.5399 9.10805 10.9437 8.58288 10.248 8.224V8.224ZM8 7.648C7.71836 7.648 7.44304 7.56448 7.20887 7.40801C6.97469 7.25154 6.79217 7.02914 6.6844 6.76894C6.57662 6.50874 6.54842 6.22242 6.60336 5.94619C6.65831 5.66996 6.79393 5.41623 6.99308 5.21708C7.19223 5.01793 7.44596 4.88231 7.72219 4.82736C7.99842 4.77242 8.28474 4.80062 8.54494 4.9084C8.80514 5.01617 9.02754 5.19869 9.18401 5.43287C9.34048 5.66704 9.424 5.94236 9.424 6.224C9.424 6.60167 9.27397 6.96387 9.00692 7.23092C8.73987 7.49797 8.37767 7.648 8 7.648V7.648ZM13.6 0H2.4C1.76348 0 1.15303 0.252856 0.702944 0.702944C0.252856 1.15303 0 1.76348 0 2.4V13.6C0 14.2365 0.252856 14.847 0.702944 15.2971C1.15303 15.7471 1.76348 16 2.4 16H13.6C14.2365 16 14.847 15.7471 15.2971 15.2971C15.7471 14.847 16 14.2365 16 13.6V2.4C16 1.76348 15.7471 1.15303 15.2971 0.702944C14.847 0.252856 14.2365 0 13.6 0ZM14.4 13.6C14.4 13.8122 14.3157 14.0157 14.1657 14.1657C14.0157 14.3157 13.8122 14.4 13.6 14.4H2.4C2.18783 14.4 1.98434 14.3157 1.83431 14.1657C1.68429 14.0157 1.6 13.8122 1.6 13.6V2.4C1.6 2.18783 1.68429 1.98434 1.83431 1.83431C1.98434 1.68429 2.18783 1.6 2.4 1.6H13.6C13.8122 1.6 14.0157 1.68429 14.1657 1.83431C14.3157 1.98434 14.4 2.18783 14.4 2.4V13.6Z" fill="#424245"/>
</svg>
