<svg width="16" height="16" viewBox="0 0 16 16" fill="none" xmlns="http://www.w3.org/2000/svg">
<g clip-path="url(#clip0_621_457)">
<path d="M2.8 12.3998H1.6V3.60039H7.84L7.2 4.23235C7.04936 4.38192 6.96431 4.5852 6.96356 4.79748C6.96281 5.00976 7.04642 5.21364 7.196 5.36427C7.34558 5.5149 7.54888 5.59995 7.76117 5.6007C7.97346 5.60145 8.17736 5.51784 8.328 5.36827L10.328 3.36841C10.403 3.29404 10.4625 3.20557 10.5031 3.10808C10.5437 3.0106 10.5646 2.90605 10.5646 2.80044C10.5646 2.69484 10.5437 2.59028 10.5031 2.4928C10.4625 2.39532 10.403 2.30685 10.328 2.23248L8.328 0.232618C8.17811 0.0836277 7.97535 0 7.764 0C7.55265 0 7.34989 0.0836277 7.2 0.232618C7.12502 0.306984 7.0655 0.395459 7.02489 0.49294C6.98427 0.59042 6.96336 0.694978 6.96336 0.80058C6.96336 0.906182 6.98427 1.01074 7.02489 1.10822C7.0655 1.2057 7.12502 1.29418 7.2 1.36854L7.832 2.0005H0.8C0.587827 2.0005 0.384344 2.08478 0.234315 2.2348C0.0842854 2.38482 0 2.58829 0 2.80044V13.1997C0 13.4119 0.0842854 13.6154 0.234315 13.7654C0.384344 13.9154 0.587827 13.9997 0.8 13.9997H2.8C3.01217 13.9997 3.21566 13.9154 3.36569 13.7654C3.51571 13.6154 3.6 13.4119 3.6 13.1997C3.6 12.9876 3.51571 12.7841 3.36569 12.6341C3.21566 12.4841 3.01217 12.3998 2.8 12.3998ZM15.2 2.0005H13.2C12.9878 2.0005 12.7843 2.08478 12.6343 2.2348C12.4843 2.38482 12.4 2.58829 12.4 2.80044C12.4 3.0126 12.4843 3.21607 12.6343 3.36609C12.7843 3.51611 12.9878 3.60039 13.2 3.60039H14.4V12.3998H7.704L8.336 11.7678C8.41098 11.6935 8.4705 11.605 8.51111 11.5075C8.55173 11.41 8.57264 11.3055 8.57264 11.1999C8.57264 11.0943 8.55173 10.9897 8.51111 10.8922C8.4705 10.7948 8.41098 10.7063 8.336 10.6319C8.18611 10.4829 7.98335 10.3993 7.772 10.3993C7.56065 10.3993 7.35789 10.4829 7.208 10.6319L5.208 12.6318C5.13302 12.7061 5.0735 12.7946 5.03289 12.8921C4.99227 12.9896 4.97136 13.0941 4.97136 13.1997C4.97136 13.3053 4.99227 13.4099 5.03289 13.5074C5.0735 13.6049 5.13302 13.6933 5.208 13.7677L7.208 15.7676C7.35864 15.9171 7.56254 16.0007 7.77483 16C7.98712 15.9992 8.19042 15.9142 8.34 15.7636C8.48958 15.6129 8.5732 15.4091 8.57244 15.1968C8.5717 14.9845 8.48664 14.7812 8.336 14.6316L7.704 13.9997H15.2C15.4122 13.9997 15.6157 13.9154 15.7657 13.7654C15.9157 13.6154 16 13.4119 16 13.1997V2.80044C16 2.58829 15.9157 2.38482 15.7657 2.2348C15.6157 2.08478 15.4122 2.0005 15.2 2.0005Z" fill="#424245"/>
</g>
<defs>
<clipPath id="clip0_621_457">
<rect width="16" height="16" fill="white"/>
</clipPath>
</defs>
</svg>
