<svg width="13" height="16" viewBox="0 0 13 16" fill="none" xmlns="http://www.w3.org/2000/svg">
<path d="M0 8C0 8.21217 0.0834077 8.41566 0.231874 8.56569C0.38034 8.71571 0.581704 8.8 0.791667 8.8H6.80042L4.97958 10.632C4.90538 10.7064 4.84649 10.7949 4.80629 10.8923C4.7661 10.9898 4.74541 11.0944 4.74541 11.2C4.74541 11.3056 4.7661 11.4102 4.80629 11.5077C4.84649 11.6051 4.90538 11.6936 4.97958 11.768C5.05318 11.843 5.14074 11.9025 5.23721 11.9431C5.33368 11.9837 5.43716 12.0046 5.54167 12.0046C5.64618 12.0046 5.74965 11.9837 5.84612 11.9431C5.9426 11.9025 6.03015 11.843 6.10375 11.768L9.27042 8.568C9.34249 8.49192 9.39899 8.4022 9.43667 8.304C9.51585 8.10923 9.51585 7.89077 9.43667 7.696C9.39899 7.5978 9.34249 7.50808 9.27042 7.432L6.10375 4.232C6.02994 4.15741 5.94231 4.09824 5.84586 4.05787C5.74942 4.0175 5.64606 3.99673 5.54167 3.99673C5.43728 3.99673 5.33391 4.0175 5.23747 4.05787C5.14103 4.09824 5.0534 4.15741 4.97958 4.232C4.90577 4.30659 4.84722 4.39514 4.80727 4.4926C4.76732 4.59006 4.74676 4.69451 4.74676 4.8C4.74676 4.90549 4.76732 5.00994 4.80727 5.1074C4.84722 5.20486 4.90577 5.29341 4.97958 5.368L6.80042 7.2H0.791667C0.581704 7.2 0.38034 7.28429 0.231874 7.43431C0.0834077 7.58434 0 7.78783 0 8ZM10.2917 0H2.375C1.74511 0 1.14102 0.252856 0.695621 0.702944C0.250223 1.15303 0 1.76348 0 2.4V4.8C0 5.01217 0.0834077 5.21566 0.231874 5.36569C0.38034 5.51571 0.581704 5.6 0.791667 5.6C1.00163 5.6 1.20299 5.51571 1.35146 5.36569C1.49993 5.21566 1.58333 5.01217 1.58333 4.8V2.4C1.58333 2.18783 1.66674 1.98434 1.81521 1.83431C1.96367 1.68429 2.16504 1.6 2.375 1.6H10.2917C10.5016 1.6 10.703 1.68429 10.8515 1.83431C10.9999 1.98434 11.0833 2.18783 11.0833 2.4V13.6C11.0833 13.8122 10.9999 14.0157 10.8515 14.1657C10.703 14.3157 10.5016 14.4 10.2917 14.4H2.375C2.16504 14.4 1.96367 14.3157 1.81521 14.1657C1.66674 14.0157 1.58333 13.8122 1.58333 13.6V11.2C1.58333 10.9878 1.49993 10.7843 1.35146 10.6343C1.20299 10.4843 1.00163 10.4 0.791667 10.4C0.581704 10.4 0.38034 10.4843 0.231874 10.6343C0.0834077 10.7843 0 10.9878 0 11.2V13.6C0 14.2365 0.250223 14.847 0.695621 15.2971C1.14102 15.7471 1.74511 16 2.375 16H10.2917C10.9216 16 11.5256 15.7471 11.971 15.2971C12.4164 14.847 12.6667 14.2365 12.6667 13.6V2.4C12.6667 1.76348 12.4164 1.15303 11.971 0.702944C11.5256 0.252856 10.9216 0 10.2917 0Z" fill="#424245"/>
</svg>
