<svg width="16" height="16" viewBox="0 0 16 16" fill="none" xmlns="http://www.w3.org/2000/svg">
<path d="M15.9732 5.80016C15.9227 5.65351 15.8309 5.52469 15.709 5.42934C15.587 5.33399 15.4401 5.2762 15.2861 5.26297L10.7403 4.59749L8.70306 0.452292C8.63764 0.316734 8.5355 0.202411 8.40833 0.122419C8.28116 0.0424262 8.13412 0 7.98404 0C7.83396 0 7.68691 0.0424262 7.55974 0.122419C7.43258 0.202411 7.33043 0.316734 7.26502 0.452292L5.22779 4.58948L0.681976 5.26297C0.534115 5.28406 0.395105 5.34633 0.280722 5.4427C0.166338 5.53907 0.0811613 5.66569 0.0348564 5.80818C-0.00752995 5.94743 -0.0113336 6.09563 0.0238536 6.23689C0.0590407 6.37814 0.13189 6.50711 0.234585 6.60996L3.53409 9.81708L2.73518 14.3712C2.70666 14.5215 2.72159 14.6769 2.77822 14.8189C2.83485 14.961 2.9308 15.0839 3.05475 15.173C3.17556 15.2596 3.31805 15.3108 3.46622 15.3207C3.6144 15.3306 3.7624 15.2989 3.8936 15.2291L7.98404 13.0883L12.0585 15.2371C12.1706 15.3006 12.2973 15.3338 12.426 15.3333C12.5952 15.3339 12.7603 15.2806 12.8973 15.181C13.0213 15.0919 13.1172 14.969 13.1739 14.827C13.2305 14.6849 13.2454 14.5295 13.2169 14.3792L12.418 9.8251L15.7175 6.61798C15.8329 6.51991 15.9181 6.391 15.9634 6.24623C16.0086 6.10147 16.012 5.94679 15.9732 5.80016ZM11.0599 9.00728C10.9662 9.09823 10.8961 9.21081 10.8557 9.33519C10.8153 9.45957 10.8058 9.59198 10.8282 9.72087L11.4034 13.0803L8.39947 11.4768C8.28388 11.415 8.15494 11.3827 8.02398 11.3827C7.89303 11.3827 7.76408 11.415 7.64849 11.4768L4.64458 13.0803L5.2198 9.72087C5.24212 9.59198 5.23267 9.45957 5.19229 9.33519C5.1519 9.21081 5.08181 9.09823 4.98811 9.00728L2.59138 6.60194L5.9548 6.11286C6.08422 6.09479 6.20725 6.04514 6.31311 5.96826C6.41897 5.89138 6.50442 5.78961 6.56197 5.67188L7.98404 2.6171L9.48599 5.6799C9.54355 5.79763 9.629 5.8994 9.73485 5.97628C9.84071 6.05316 9.96374 6.10281 10.0932 6.12088L13.4566 6.60996L11.0599 9.00728Z" fill="#424245"/>
</svg>
