<svg width="16" height="16" viewBox="0 0 16 16" fill="none" xmlns="http://www.w3.org/2000/svg">
<g clip-path="url(#clip0_621_480)">
<path d="M6.37021 12.8C6.58631 12.8 6.79356 12.7157 6.94637 12.5657C7.09918 12.4157 7.18502 12.2122 7.18502 12V7.2C7.18502 6.98783 7.09918 6.78434 6.94637 6.63432C6.79356 6.48429 6.58631 6.4 6.37021 6.4C6.15411 6.4 5.94685 6.48429 5.79405 6.63432C5.64124 6.78434 5.55539 6.98783 5.55539 7.2V12C5.55539 12.2122 5.64124 12.4157 5.79405 12.5657C5.94685 12.7157 6.15411 12.8 6.37021 12.8ZM14.5184 3.2H11.2591V2.4C11.2591 1.76348 11.0016 1.15303 10.5431 0.702944C10.0847 0.252856 9.46296 0 8.81465 0H7.18502C6.53672 0 5.91496 0.252856 5.45654 0.702944C4.99812 1.15303 4.74058 1.76348 4.74058 2.4V3.2H1.48132C1.26522 3.2 1.05797 3.28429 0.905158 3.43431C0.75235 3.58434 0.666504 3.78783 0.666504 4C0.666504 4.21217 0.75235 4.41566 0.905158 4.56569C1.05797 4.71571 1.26522 4.8 1.48132 4.8H2.29613V13.6C2.29613 14.2365 2.55367 14.847 3.01209 15.2971C3.47052 15.7471 4.09227 16 4.74058 16H11.2591C11.9074 16 12.5292 15.7471 12.9876 15.2971C13.446 14.847 13.7035 14.2365 13.7035 13.6V4.8H14.5184C14.7345 4.8 14.9417 4.71571 15.0945 4.56569C15.2473 4.41566 15.3332 4.21217 15.3332 4C15.3332 3.78783 15.2473 3.58434 15.0945 3.43431C14.9417 3.28429 14.7345 3.2 14.5184 3.2ZM6.37021 2.4C6.37021 2.18783 6.45605 1.98434 6.60886 1.83431C6.76167 1.68429 6.96892 1.6 7.18502 1.6H8.81465C9.03075 1.6 9.23801 1.68429 9.39081 1.83431C9.54362 1.98434 9.62947 2.18783 9.62947 2.4V3.2H6.37021V2.4ZM12.0739 13.6C12.0739 13.8122 11.9881 14.0157 11.8353 14.1657C11.6825 14.3157 11.4752 14.4 11.2591 14.4H4.74058C4.52448 14.4 4.31722 14.3157 4.16442 14.1657C4.01161 14.0157 3.92576 13.8122 3.92576 13.6V4.8H12.0739V13.6ZM9.62947 12.8C9.84557 12.8 10.0528 12.7157 10.2056 12.5657C10.3584 12.4157 10.4443 12.2122 10.4443 12V7.2C10.4443 6.98783 10.3584 6.78434 10.2056 6.63432C10.0528 6.48429 9.84557 6.4 9.62947 6.4C9.41336 6.4 9.20611 6.48429 9.05331 6.63432C8.9005 6.78434 8.81465 6.98783 8.81465 7.2V12C8.81465 12.2122 8.9005 12.4157 9.05331 12.5657C9.20611 12.7157 9.41336 12.8 9.62947 12.8Z" fill="#424245"/>
</g>
<defs>
<clipPath id="clip0_621_480">
<rect width="16" height="16" fill="white"/>
</clipPath>
</defs>
</svg>
