<svg width="24" height="24" viewBox="0 0 24 24" fill="none" xmlns="http://www.w3.org/2000/svg">
<path d="M23.8499 11.2389C23.7547 10.9936 23.6119 10.7695 23.4297 10.5795L13.4256 0.587699C13.239 0.401376 13.0176 0.253576 12.7738 0.152739C12.5301 0.051901 12.2688 0 12.005 0C11.4722 0 10.9612 0.211402 10.5844 0.587699C10.3978 0.774023 10.2499 0.995221 10.1489 1.23866C10.0479 1.48211 9.99597 1.74303 9.99597 2.00653C9.99597 2.53869 10.2076 3.04906 10.5844 3.42536L17.1871 9.99994H2.00083C1.47018 9.99994 0.961259 10.2105 0.58603 10.5852C0.210802 10.96 0 11.4683 0 11.9983C0 12.5283 0.210802 13.0366 0.58603 13.4113C0.961259 13.7861 1.47018 13.9966 2.00083 13.9966H17.1871L10.5844 20.5712C10.3969 20.757 10.248 20.978 10.1464 21.2215C10.0449 21.4651 9.99256 21.7263 9.99256 21.9901C9.99256 22.2539 10.0449 22.5151 10.1464 22.7586C10.248 23.0021 10.3969 23.2231 10.5844 23.4089C10.7704 23.5962 10.9917 23.7449 11.2355 23.8463C11.4793 23.9478 11.7409 24 12.005 24C12.2691 24 12.5306 23.9478 12.7745 23.8463C13.0183 23.7449 13.2396 23.5962 13.4256 23.4089L23.4297 13.4171C23.6119 13.2271 23.7547 13.003 23.8499 12.7577C24.05 12.2711 24.05 11.7254 23.8499 11.2389Z" fill="white"/>
</svg>
