<svg width="16" height="16" viewBox="0 0 16 16" fill="none" xmlns="http://www.w3.org/2000/svg">
<path d="M15.9877 6.13992C16.0676 5.73814 15.7479 5.25601 15.3482 5.25601L10.7917 4.61316L8.71328 0.434686C8.63334 0.273975 8.5534 0.193619 8.39353 0.113264C7.99383 -0.127802 7.5142 0.0329088 7.27439 0.434686L5.27593 4.61316L0.719445 5.25601C0.47963 5.25601 0.319753 5.33636 0.239815 5.49707C-0.0799383 5.81849 -0.0799383 6.30063 0.239815 6.62205L3.51729 9.83626L2.7179 14.4165C2.7179 14.5772 2.7179 14.7379 2.79784 14.8986C3.03766 15.3004 3.51729 15.4611 3.91698 15.2201L7.99383 13.0505L12.0707 15.2201C12.1506 15.3004 12.3105 15.3004 12.4704 15.3004C12.5503 15.3004 12.5503 15.3004 12.6303 15.3004C13.0299 15.2201 13.3497 14.8183 13.2698 14.3362L12.4704 9.75591L15.7479 6.54169C15.9077 6.46134 15.9877 6.30063 15.9877 6.13992Z" fill="#E9C46A"/>
</svg>
