<svg width="24" height="23" viewBox="0 0 24 23" fill="none" xmlns="http://www.w3.org/2000/svg">
<path d="M22.9954 8.987C22.9998 9.00507 23 9.01552 23 9.01843L22.9992 9.02248L22.9216 9.09857L18.0054 13.9199L17.6301 14.288L17.7205 14.8058L18.9186 21.6707C18.9333 21.7638 18.9103 21.8306 18.8764 21.8788C18.8529 21.9122 18.825 21.9356 18.7986 21.9506H18.7984H18.798H18.7976H18.7972H18.7968H18.7965H18.7961H18.7957H18.7953H18.7949H18.7945H18.7941H18.7937H18.7933H18.793H18.7926H18.7922H18.7918H18.7914H18.791H18.7906H18.7902H18.7898H18.7894H18.789H18.7886H18.7882H18.7878H18.7873H18.7869H18.7865H18.7861H18.7857H18.7853H18.7849H18.7845H18.784H18.7836H18.7832H18.7828H18.7824H18.7819H18.7815H18.7811H18.7807H18.7802H18.7798H18.7794H18.7789H18.7785H18.7781H18.7776H18.7772H18.7768H18.7763H18.7759H18.7754H18.775H18.7746H18.7741H18.7737H18.7732H18.7728H18.7723H18.7719H18.7714H18.7709H18.7705H18.77H18.7696H18.7691H18.7686H18.7682H18.7677H18.7672H18.7668H18.7663H18.7658H18.7653H18.7649H18.7644H18.7639H18.7634H18.7629H18.7624H18.762H18.7615H18.761H18.7605H18.76H18.7595H18.759H18.7585H18.758H18.7575H18.757H18.7565H18.756H18.7555H18.7549H18.7544H18.7539H18.7534H18.7529H18.7523H18.7518H18.7513H18.7508H18.7502H18.7497H18.7492H18.7486H18.7481H18.7476H18.747H18.7465H18.7459H18.7454H18.7448H18.7443H18.7437H18.7432H18.7426H18.7421H18.7415H18.7409H18.7404H18.7398H18.7392H18.7386H18.7381H18.7375H18.7369H18.7363H18.7357H18.7352H18.7346H18.734H18.7334H18.7328H18.7322H18.7316H18.731H18.7304H18.7298H18.7292H18.7286H18.7279H18.7273H18.7267H18.7261H18.7255H18.7248H18.7242H18.7236H18.7229H18.7223H18.7217H18.721H18.7204H18.7197H18.7191H18.7184H18.7178H18.7171H18.7165H18.7158H18.7151H18.7145H18.7138H18.7131H18.7125H18.7118H18.7111H18.7104H18.7097H18.7091H18.7084H18.7077H18.707H18.7063H18.7056C18.6533 21.9506 18.6145 21.9506 18.5805 21.9498L18.5758 21.9473L12.4605 18.6929L11.9908 18.4429L11.521 18.6929L5.40568 21.9473L5.38199 21.9599L5.359 21.9738C5.32879 21.992 5.30669 21.9974 5.29201 21.9992C5.27642 22.001 5.2577 22.0001 5.23491 21.9932C5.19653 21.9816 5.13962 21.95 5.08701 21.8819C5.08611 21.8769 5.08515 21.8706 5.0842 21.863C5.07963 21.8262 5.07778 21.7839 5.07714 21.7097L6.26104 14.9263L6.35142 14.4085L5.97611 14.0404L1.06571 9.2248C1.00954 9.16701 1 9.11831 1 9.08934C1 9.05987 1.00987 9.00998 1.06867 8.95087L1.13518 8.88401H1.14936L1.21887 8.8742L8.0536 7.90994L8.58463 7.83502L8.81603 7.35121L11.7885 1.13631C11.8446 1.05559 11.9081 1.01934 11.9497 1.00678C11.9725 0.999904 11.9912 0.99898 12.0068 1.00085C12.0215 1.0026 12.0436 1.00798 12.0738 1.0262L12.1068 1.04609L12.1412 1.06339C12.1498 1.06772 12.157 1.07147 12.1628 1.07464C12.1661 1.08075 12.17 1.08826 12.1746 1.09738L15.2922 7.3651L15.5266 7.8364L16.0478 7.90994L22.8825 8.8742L22.9437 8.88283C22.9467 8.88654 22.9499 8.89079 22.9533 8.89562C22.9733 8.92412 22.9881 8.95739 22.9954 8.987ZM1.0288 8.88702C1.0288 8.88702 1.02903 8.88697 1.0295 8.88688L1.0288 8.88702Z" fill="#E9C46A" stroke="#424245" stroke-width="2"/>
</svg>
